<svg width="256" height="256" viewBox="0 0 256 256" fill="none" xmlns="http://www.w3.org/2000/svg">
<g clip-path="url(#clip0_18_10)">
<rect x="11" y="11" width="234" height="234" rx="5" fill="#409EFF"/>
<mask id="mask0_18_10" style="mask-type:alpha" maskUnits="userSpaceOnUse" x="9" y="6" width="358" height="358">
<rect x="9.21362" y="246.579" width="338.912" height="165.738" transform="rotate(-45 9.21362 246.579)" fill="white"/>
</mask>
<g mask="url(#mask0_18_10)">
<rect x="11" y="10.9998" width="234" height="234" rx="5" fill="white"/>
</g>
<path d="M20.5625 178V76.1818H64.5114C72.0682 76.1818 78.6804 77.6733 84.348 80.6562C90.0156 83.6392 94.4238 87.8319 97.5724 93.2344C100.721 98.6368 102.295 104.951 102.295 112.176C102.295 119.468 100.671 125.782 97.4233 131.118C94.2083 136.454 89.6842 140.564 83.8509 143.447C78.0507 146.331 71.2727 147.773 63.517 147.773H37.267V126.295H57.9489C61.197 126.295 63.9645 125.732 66.2514 124.605C68.5715 123.445 70.3447 121.804 71.571 119.683C72.8305 117.562 73.4602 115.06 73.4602 112.176C73.4602 109.259 72.8305 106.774 71.571 104.719C70.3447 102.631 68.5715 101.04 66.2514 99.946C63.9645 98.8191 61.197 98.2557 57.9489 98.2557H48.2045V178H20.5625ZM112.438 76.1818H146.841L170.506 133.852H171.699L195.364 76.1818H229.767V178H202.722V119.136H201.926L179.256 177.205H162.949L140.278 118.739H139.483V178H112.438V76.1818Z" fill="white"/>
<mask id="mask1_18_10" style="mask-type:alpha" maskUnits="userSpaceOnUse" x="-11" y="-21" width="453" height="453">
<rect x="-11" y="266.792" width="407" height="233" transform="rotate(-45 -11 266.792)" fill="white"/>
</mask>
<g mask="url(#mask1_18_10)">
<path d="M20.5625 178V76.1818H64.5114C72.0682 76.1818 78.6804 77.6733 84.348 80.6562C90.0156 83.6392 94.4238 87.8319 97.5724 93.2344C100.721 98.6368 102.295 104.951 102.295 112.176C102.295 119.468 100.671 125.782 97.4233 131.118C94.2083 136.454 89.6842 140.564 83.8509 143.447C78.0507 146.331 71.2727 147.773 63.517 147.773H37.267V126.295H57.9489C61.197 126.295 63.9645 125.732 66.2514 124.605C68.5715 123.445 70.3447 121.804 71.571 119.683C72.8305 117.562 73.4602 115.06 73.4602 112.176C73.4602 109.259 72.8305 106.774 71.571 104.719C70.3447 102.631 68.5715 101.04 66.2514 99.946C63.9645 98.8191 61.197 98.2557 57.9489 98.2557H48.2045V178H20.5625ZM112.438 76.1818H146.841L170.506 133.852H171.699L195.364 76.1818H229.767V178H202.722V119.136H201.926L179.256 177.205H162.949L140.278 118.739H139.483V178H112.438V76.1818Z" fill="#409EFF"/>
</g>
</g>
<defs>
<clipPath id="clip0_18_10">
<rect width="256" height="256" fill="white"/>
</clipPath>
</defs>
</svg>
