<?xml version="1.0" standalone="no"?>
<!DOCTYPE svg PUBLIC "-//W3C//DTD SVG 20010904//EN"
 "http://www.w3.org/TR/2001/REC-SVG-20010904/DTD/svg10.dtd">
<svg version="1.0" xmlns="http://www.w3.org/2000/svg"
 width="512.000000pt" height="512.000000pt" viewBox="0 0 512.000000 512.000000"
 preserveAspectRatio="xMidYMid meet">

<g transform="translate(0.000000,512.000000) scale(0.100000,-0.100000)"
fill="#000000" stroke="none">
<path d="M4240 4533 c0 -71 5 -185 11 -255 l12 -128 43 0 43 0 5 43 c16 112
26 259 26 358 l0 109 -70 0 -70 0 0 -127z"/>
<path d="M4245 4095 c-36 -35 -34 -88 4 -126 33 -33 58 -36 101 -14 58 30 67
90 21 136 -38 38 -91 40 -126 4z"/>
<path d="M3345 3629 c-288 -35 -512 -206 -580 -442 -20 -70 -22 -228 -4 -302
44 -184 185 -325 420 -419 46 -19 171 -64 278 -101 222 -76 297 -111 335 -155
69 -83 37 -204 -67 -255 -119 -57 -260 -57 -377 1 -80 40 -187 148 -234 235
-16 30 -30 55 -31 57 -4 4 -409 -148 -418 -157 -23 -23 102 -252 193 -354 101
-113 265 -209 425 -248 116 -29 329 -31 450 -5 288 62 497 241 551 472 23 98
15 286 -14 369 -61 167 -208 298 -442 393 -52 22 -176 67 -275 102 -294 102
-341 133 -332 223 5 56 32 91 92 118 85 38 239 33 325 -11 43 -22 108 -91 141
-149 13 -22 29 -39 36 -37 6 3 100 33 208 68 l197 62 -5 33 c-8 46 -71 166
-123 235 -89 115 -236 209 -388 248 -93 24 -253 32 -361 19z"/>
<path d="M830 2550 l0 -1050 235 0 235 0 -2 608 -3 608 40 -71 c22 -38 216
-312 430 -608 l389 -537 208 0 208 0 0 1050 0 1050 -241 0 -240 0 3 -599 3
-598 -26 47 c-32 58 3 8 -441 633 l-368 517 -215 0 -215 0 0 -1050z"/>
</g>
</svg>
